<svg width="24" height="20" viewBox="0 0 24 20" fill="none" xmlns="http://www.w3.org/2000/svg">
<path d="M6.42526 15.7123C5.69784 16.325 4.94184 16.6001 4.15726 16.5377C3.37287 16.4755 2.69299 16.2023 2.11763 15.7181C1.54227 15.234 1.15727 14.6082 0.962633 13.841C0.767994 13.0737 0.914702 12.2839 1.40276 11.4718L3.73376 7.59113C3.23423 7.20866 2.8363 6.72867 2.53997 6.15117C2.24344 5.57348 2.09517 4.94552 2.09517 4.2673C2.09517 3.10996 2.50506 2.12131 3.32484 1.30134C4.14481 0.481366 5.13697 0.0713806 6.3013 0.0713806C7.46019 0.0713806 8.44962 0.481366 9.26959 1.30134C10.0896 2.12131 10.4995 3.11084 10.4995 4.26992C10.4995 5.42881 10.0896 6.41834 9.26959 7.23851C8.44962 8.05848 7.46019 8.46846 6.3013 8.46846C6.07788 8.46846 5.85836 8.45174 5.64272 8.4183C5.42688 8.38485 5.22204 8.33352 5.02817 8.2643L2.65022 12.2397C2.37741 12.6869 2.2938 13.1274 2.39938 13.5613C2.50477 13.9949 2.72002 14.3472 3.04513 14.6183C3.37005 14.8893 3.75398 15.0414 4.19692 15.0744C4.64006 15.1077 5.06629 14.955 5.47559 14.6165L17.5856 4.26992C18.299 3.65723 19.0497 3.3781 19.8375 3.43255C20.6254 3.48719 21.3113 3.75591 21.8953 4.23871C22.4724 4.72249 22.8614 5.35142 23.0622 6.1255C23.2631 6.89959 23.1182 7.69652 22.6276 8.5163L20.2975 12.4007C20.797 12.788 21.1937 13.2688 21.4875 13.843C21.7815 14.4172 21.9285 15.0422 21.9285 15.7181C21.9285 16.8772 21.5153 17.8667 20.6889 18.6867C19.8627 19.5067 18.8694 19.9167 17.709 19.9167C16.5446 19.9167 15.5572 19.5047 14.7468 18.6809C13.9366 17.857 13.5314 16.8683 13.5314 15.7146C13.5314 14.5608 13.9374 13.5732 14.7494 12.7519C15.5612 11.9304 16.5471 11.5196 17.7069 11.5196C17.9253 11.5196 18.14 11.5349 18.3509 11.5657C18.5617 11.5964 18.7666 11.6464 18.9655 11.7156L21.3495 7.74834C21.6224 7.29606 21.7078 6.85457 21.6059 6.42388C21.5038 5.99299 21.2905 5.64173 20.966 5.37009C20.6415 5.09826 20.2575 4.94406 19.8142 4.90751C19.3711 4.87076 18.9449 5.02544 18.5355 5.37155L6.42526 15.7123ZM17.7081 18.4508C18.4656 18.4508 19.1141 18.1829 19.6535 17.6472C20.1929 17.1113 20.4626 16.4661 20.4626 15.7114C20.4626 14.9566 20.1926 14.3136 19.6526 13.7823C19.1127 13.2511 18.4635 12.9855 17.7052 12.9855C16.9468 12.9855 16.306 13.2523 15.7825 13.7858C15.2591 14.3194 14.9973 14.9646 14.9973 15.7213C14.9973 16.4736 15.2587 17.1166 15.7813 17.6501C16.3042 18.1839 16.9465 18.4508 17.7081 18.4508ZM6.30422 7.00255C7.05652 7.00255 7.69955 6.7347 8.2333 6.199C8.76705 5.66312 9.03393 5.01775 9.03393 4.26292C9.03393 3.50828 8.76598 2.86535 8.23009 2.33413C7.6944 1.80291 7.04913 1.5373 6.2943 1.5373C5.53947 1.5373 4.89527 1.80407 4.36172 2.33763C3.82797 2.87118 3.56109 3.51635 3.56109 4.27313C3.56109 5.02524 3.82855 5.66817 4.36347 6.20192C4.89858 6.73567 5.54549 7.00255 6.30422 7.00255Z" fill="#F6F6F6"/>
</svg>
