<svg width="24" height="18" viewBox="0 0 24 18" fill="none" xmlns="http://www.w3.org/2000/svg">
<path d="M18.9549 9.875V8.125H23.173V9.875H18.9549ZM20.2875 17.7275L16.9132 15.1967L17.9767 13.8014L21.351 16.3319L20.2875 17.7275ZM17.9317 4.15396L16.8683 2.75833L20.2426 0.227539L21.3063 1.62317L17.9317 4.15396ZM4.12483 16.5609V12.0065H2.9357C2.35392 12.0065 1.85702 11.8004 1.44499 11.3882C1.03277 10.9761 0.82666 10.4792 0.82666 9.89746V8.10254C0.82666 7.52076 1.03277 7.02386 1.44499 6.61183C1.85702 6.19961 2.35392 5.9935 2.9357 5.9935H7.44545L12.673 2.875V15.125L7.44545 12.0065H5.87483V16.5609H4.12483ZM10.923 12.0155V5.98446L7.92991 7.7435H2.9357C2.84606 7.7435 2.76381 7.78093 2.68895 7.85579C2.61409 7.93065 2.57666 8.0129 2.57666 8.10254V9.89746C2.57666 9.98709 2.61409 10.0693 2.68895 10.1442C2.76381 10.2191 2.84606 10.2565 2.9357 10.2565H7.92991L10.923 12.0155ZM14.2882 12.6391V5.36087C14.746 5.77523 15.1146 6.29722 15.3942 6.92683C15.674 7.55664 15.814 8.24769 15.814 9C15.814 9.7523 15.674 10.4434 15.3942 11.0732C15.1146 11.7028 14.746 12.2248 14.2882 12.6391Z" fill="#F6F6F6"/>
</svg>
