<svg width="24" height="22" viewBox="0 0 24 22" fill="none" xmlns="http://www.w3.org/2000/svg">
<path d="M4.05327 16.6134C2.95991 15.4841 2.14139 14.2396 1.59773 12.8801C1.05406 11.5205 0.782227 10.1161 0.782227 8.66667C0.782227 7.21728 1.05406 5.81281 1.59773 4.45325C2.14139 3.0937 2.95991 1.84925 4.05327 0.719917L5.13914 1.80579C4.19084 2.76149 3.48335 3.83764 3.01669 5.03425C2.55002 6.23086 2.31669 7.44167 2.31669 8.66667C2.31669 9.89167 2.55002 11.1025 3.01669 12.2991C3.48335 13.4957 4.19084 14.5718 5.13914 15.5275L4.05327 16.6134ZM6.80835 13.8583C6.09494 13.1299 5.55389 12.3155 5.18523 11.415C4.81656 10.5146 4.63223 9.59845 4.63223 8.66667C4.63223 7.73489 4.81656 6.81877 5.18523 5.91829C5.55389 5.01782 6.09494 4.20339 6.80835 3.475L7.89423 4.56088C7.31848 5.10085 6.88662 5.7324 6.59864 6.45554C6.31067 7.17868 6.16669 7.91572 6.16669 8.66667C6.16669 9.38164 6.30882 10.0988 6.5931 10.8183C6.87719 11.5377 7.31089 12.1891 7.89423 12.7725L6.80835 13.8583ZM6.79494 21.7018L10.4632 10.697C10.1371 10.4623 9.88174 10.1658 9.69702 9.80767C9.5123 9.44931 9.41994 9.06897 9.41994 8.66667C9.41994 7.94722 9.67009 7.33735 10.1704 6.83704C10.6707 6.33674 11.2806 6.08658 12 6.08658C12.7195 6.08658 13.3293 6.33674 13.8296 6.83704C14.3299 7.33735 14.5801 7.94722 14.5801 8.66667C14.5801 9.06897 14.4915 9.44552 14.3144 9.79629C14.1371 10.1471 13.8779 10.4473 13.5368 10.697L17.2051 21.7018H15.4326L14.6743 19.3685H9.34352L8.57848 21.7018H6.79494ZM9.92248 17.6185H14.0776L12 11.3812L9.92248 17.6185ZM17.1917 13.8583L16.1058 12.7725C16.6816 12.2325 17.1134 11.6009 17.4014 10.8778C17.6894 10.1547 17.8334 9.41761 17.8334 8.66667C17.8334 7.97406 17.6894 7.26434 17.4014 6.5375C17.1134 5.81067 16.6816 5.15179 16.1058 4.56088L17.1917 3.475C17.9051 4.20339 18.4372 5.02152 18.788 5.92938C19.1388 6.83743 19.332 7.75356 19.3678 8.67775C19.3678 9.60972 19.1854 10.524 18.8206 11.4206C18.4557 12.3174 17.9127 13.1299 17.1917 13.8583ZM19.9468 16.6134L18.8609 15.5275C19.8092 14.5718 20.5167 13.4957 20.9834 12.2991C21.45 11.1025 21.6834 9.89167 21.6834 8.66667C21.6834 7.44167 21.45 6.23086 20.9834 5.03425C20.5167 3.83764 19.8092 2.76149 18.8609 1.80579L19.9468 0.719917C21.0327 1.84925 21.8494 3.0937 22.3968 4.45325C22.9441 5.81281 23.2178 7.21728 23.2178 8.66667C23.2178 10.1161 22.9569 11.5205 22.435 12.8801C21.9129 14.2396 21.0835 15.4841 19.9468 16.6134Z" fill="#F6F6F6"/>
</svg>
