<svg width="24" height="23" viewBox="0 0 24 23" fill="none" xmlns="http://www.w3.org/2000/svg">
<path d="M0.916504 22.5449V2.74162C0.916504 2.24015 1.0953 1.81062 1.45288 1.45304C1.81046 1.09546 2.23999 0.916666 2.74146 0.916666H21.2582C21.7597 0.916666 22.1892 1.09546 22.5468 1.45304C22.9044 1.81062 23.0832 2.24015 23.0832 2.74162V16.5917C23.0832 17.0932 22.9044 17.5227 22.5468 17.8803C22.1892 18.2379 21.7597 18.4167 21.2582 18.4167H5.04475L0.916504 22.5449ZM4.41067 16.9508H21.2582C21.348 16.9508 21.4304 16.9134 21.5053 16.8388C21.5799 16.7639 21.6173 16.6815 21.6173 16.5917V2.74162C21.6173 2.65179 21.5799 2.56944 21.5053 2.49458C21.4304 2.41992 21.348 2.38258 21.2582 2.38258H2.74146C2.65163 2.38258 2.56928 2.41992 2.49442 2.49458C2.41975 2.56944 2.38242 2.65179 2.38242 2.74162V19.0598L4.41067 16.9508Z" fill="#F6F6F6"/>
</svg>
