<svg width="28" height="28" viewBox="0 0 28 28" fill="none" xmlns="http://www.w3.org/2000/svg">
<mask id="mask0_341_39" style="mask-type:alpha" maskUnits="userSpaceOnUse" x="0" y="0" width="28" height="28">
<rect width="28" height="28" fill="#D9D9D9"/>
</mask>
<g mask="url(#mask0_341_39)">
<path d="M1.76123 22.9743V18.5993C1.76123 18.0354 1.95227 17.5579 2.33436 17.1669C2.71644 16.7757 3.1797 16.5726 3.72415 16.5576H7.32069C7.67224 16.5576 8.0062 16.6437 8.32256 16.8157C8.63873 16.9878 8.89637 17.2279 9.09548 17.5359C9.67415 18.3315 10.3916 18.9507 11.248 19.3935C12.1043 19.8362 13.0216 20.0576 13.9999 20.0576C14.99 20.0576 15.915 19.8362 16.7751 19.3935C17.6353 18.9507 18.3488 18.3315 18.9156 17.5359C19.1384 17.2279 19.405 16.9878 19.7154 16.8157C20.0257 16.6437 20.3469 16.5576 20.679 16.5576H24.2756C24.8319 16.5726 25.3 16.7757 25.6799 17.1669C26.0599 17.5579 26.2499 18.0354 26.2499 18.5993V22.9743H18.6665V20.2303C18.0009 20.7389 17.2725 21.129 16.4814 21.4004C15.69 21.6719 14.8628 21.8076 13.9999 21.8076C13.1564 21.8076 12.3378 21.6707 11.5443 21.3969C10.7508 21.1234 10.0174 20.7322 9.34427 20.2236V22.9743H1.76123ZM13.9999 18.4424C13.2983 18.4424 12.6338 18.2797 12.0063 17.9544C11.379 17.6291 10.853 17.1799 10.4281 16.6069C10.1275 16.1733 9.76106 15.8192 9.32881 15.5447C8.89656 15.2703 8.42611 15.1032 7.91744 15.0433C8.41249 14.436 9.27738 13.9645 10.5121 13.6287C11.7468 13.2929 12.9094 13.125 13.9999 13.125C15.0903 13.125 16.2529 13.2929 17.4876 13.6287C18.7223 13.9645 19.5909 14.436 20.0934 15.0433C19.5967 15.1032 19.1294 15.2703 18.6913 15.5447C18.253 15.8192 17.8836 16.1733 17.583 16.6069C17.1776 17.1994 16.6593 17.6534 16.0281 17.969C15.3969 18.2846 14.7209 18.4424 13.9999 18.4424ZM5.00311 14.9424C4.12072 14.9424 3.3654 14.6282 2.73715 14C2.1089 13.3717 1.79477 12.6164 1.79477 11.734C1.79477 10.832 2.1089 10.0718 2.73715 9.45349C3.3654 8.83496 4.12072 8.5257 5.00311 8.5257C5.90494 8.5257 6.66512 8.83496 7.28365 9.45349C7.90217 10.0718 8.21144 10.832 8.21144 11.734C8.21144 12.6164 7.90217 13.3717 7.28365 14C6.66512 14.6282 5.90494 14.9424 5.00311 14.9424ZM22.9966 14.9424C22.1142 14.9424 21.3589 14.6282 20.7306 14C20.1024 13.3717 19.7883 12.6164 19.7883 11.734C19.7883 10.832 20.1024 10.0718 20.7306 9.45349C21.3589 8.83496 22.1142 8.5257 22.9966 8.5257C23.8984 8.5257 24.6586 8.83496 25.2771 9.45349C25.8957 10.0718 26.2049 10.832 26.2049 11.734C26.2049 12.6164 25.8957 13.3717 25.2771 14C24.6586 14.6282 23.8984 14.9424 22.9966 14.9424ZM13.9999 11.4424C13.1175 11.4424 12.3621 11.1282 11.7339 10.5C11.1056 9.87174 10.7915 9.11642 10.7915 8.23403C10.7915 7.332 11.1056 6.57182 11.7339 5.95349C12.3621 5.33496 13.1175 5.0257 13.9999 5.0257C14.9017 5.0257 15.6619 5.33496 16.2804 5.95349C16.8989 6.57182 17.2082 7.332 17.2082 8.23403C17.2082 9.11642 16.8989 9.87174 16.2804 10.5C15.6619 11.1282 14.9017 11.4424 13.9999 11.4424Z" fill="#F6F6F6"/>
</g>
</svg>
