<svg width="42" height="42" viewBox="0 0 42 42" fill="none" xmlns="http://www.w3.org/2000/svg">
<g clip-path="url(#clip0_2608_2959)">
<path d="M39.93 36.6662C39.9378 38.1594 39.3044 39.5842 38.1906 40.5788C37.0768 41.5735 35.5896 42.0422 34.1068 41.8661C31.4384 41.4712 29.4829 39.1491 29.548 36.4525V5.44894C29.4835 2.74934 31.4437 0.426129 34.1157 0.0353445C35.5971 -0.138049 37.0818 0.331941 38.1936 1.32624C39.3053 2.32054 39.9375 3.74373 39.93 5.23525V36.6662Z" fill="#F9AB00"/>
<path d="M7.26143 31.5286C10.1283 31.5286 12.4524 33.8527 12.4524 36.7196C12.4524 39.5865 10.1283 41.9106 7.26143 41.9106C4.39452 41.9106 2.07043 39.5865 2.07043 36.7196C2.07043 33.8527 4.39452 31.5286 7.26143 31.5286ZM20.9201 15.7953C18.0396 15.9532 15.8047 18.3694 15.8715 21.2534V35.197C15.8715 38.9812 17.5366 41.2784 19.9763 41.7681C21.5079 42.0785 23.0979 41.6836 24.3063 40.6927C25.5147 39.7018 26.2134 38.22 26.209 36.6573V21.013C26.2116 19.616 25.6529 18.2766 24.6583 17.2954C23.6638 16.3143 22.3169 15.7738 20.9201 15.7953Z" fill="#E37400"/>
</g>
<defs>
<clipPath id="clip0_2608_2959">
<rect width="42" height="42" fill="white"/>
</clipPath>
</defs>
</svg>
