<svg width="28" height="28" viewBox="0 0 28 28" fill="none" xmlns="http://www.w3.org/2000/svg">
<mask id="mask0_341_34" style="mask-type:alpha" maskUnits="userSpaceOnUse" x="0" y="0" width="28" height="28">
<rect width="28" height="28" fill="#D9D9D9"/>
</mask>
<g mask="url(#mask0_341_34)">
<path d="M11.2002 17.7736L12.4295 16.5083L9.9212 14L12.4295 11.4917L11.2002 10.2264L7.42658 14L11.2002 17.7736ZM16.8002 17.7736L20.5737 14L16.8002 10.2264L15.5708 11.4917L18.0791 14L15.5708 16.5083L16.8002 17.7736ZM6.19254 23.9167C5.61076 23.9167 5.11376 23.7107 4.70154 23.2986C4.28951 22.8864 4.0835 22.3894 4.0835 21.8076V6.19237C4.0835 5.6106 4.28951 5.1136 4.70154 4.70138C5.11376 4.28935 5.61076 4.08333 6.19254 4.08333H11.3842C11.4575 3.43564 11.7402 2.88487 12.2324 2.43104C12.7243 1.97701 13.3136 1.75 14.0002 1.75C14.6941 1.75 15.2872 1.97701 15.7793 2.43104C16.2715 2.88487 16.5504 3.43564 16.6161 4.08333H21.8078C22.3896 4.08333 22.8866 4.28935 23.2988 4.70138C23.7108 5.1136 23.9168 5.6106 23.9168 6.19237V21.8076C23.9168 22.3894 23.7108 22.8864 23.2988 23.2986C22.8866 23.7107 22.3896 23.9167 21.8078 23.9167H6.19254ZM6.19254 22.1667H21.8078C21.8976 22.1667 21.9799 22.1292 22.0545 22.0544C22.1294 21.9797 22.1668 21.8975 22.1668 21.8076V6.19237C22.1668 6.10254 22.1294 6.02029 22.0545 5.94562C21.9799 5.87076 21.8976 5.83333 21.8078 5.83333H6.19254C6.1027 5.83333 6.02045 5.87076 5.94579 5.94562C5.87093 6.02029 5.8335 6.10254 5.8335 6.19237V21.8076C5.8335 21.8975 5.87093 21.9797 5.94579 22.0544C6.02045 22.1292 6.1027 22.1667 6.19254 22.1667ZM14.0002 5.07062C14.2529 5.07062 14.462 4.98799 14.6272 4.82271C14.7925 4.65743 14.8752 4.4484 14.8752 4.19562C14.8752 3.94285 14.7925 3.73382 14.6272 3.56854C14.462 3.40326 14.2529 3.32062 14.0002 3.32062C13.7474 3.32062 13.5384 3.40326 13.3731 3.56854C13.2078 3.73382 13.1252 3.94285 13.1252 4.19562C13.1252 4.4484 13.2078 4.65743 13.3731 4.82271C13.5384 4.98799 13.7474 5.07062 14.0002 5.07062Z" fill="#F6F6F6"/>
</g>
</svg>
