<svg width="157" height="34" viewBox="0 0 157 34" fill="none" xmlns="http://www.w3.org/2000/svg">
<g clip-path="url(#clip0_2608_2981)">
<path d="M10.1545 8.7425L8.85034 13.5147L16.3153 8.71533L11.4331 26.8244L16.3915 26.8285L23.6039 0.080658" fill="#3395FF"/>
<path d="M2.11987 19.2154L0.0662842 26.8285H10.2291L14.3876 11.3414L2.11987 19.2154ZM37.4217 12.5128C37.1733 13.4307 36.6947 14.1049 35.9809 14.5355C35.2687 14.9652 34.2693 15.1809 32.9791 15.1809H28.8803L30.3194 9.84646H34.4183C35.7068 9.84646 36.592 10.0605 37.0722 10.4968C37.5525 10.9331 37.6685 11.5999 37.4217 12.5219M41.6655 12.4067C42.1872 10.4803 41.9719 8.99855 41.018 7.9613C40.0657 6.93229 38.3947 6.41367 36.0098 6.41367H26.8623L21.3557 26.8376H25.7999L28.0191 18.6054H30.9338C31.588 18.6054 32.1031 18.7125 32.479 18.9183C32.8558 19.1323 33.0769 19.5027 33.1448 20.0378L33.938 26.8376H38.6994L37.9276 20.4988C37.7703 19.0829 37.1186 18.2515 35.9734 18.0045C37.4333 17.5847 38.6563 16.8849 39.6417 15.9135C40.6202 14.9493 41.3193 13.7407 41.6655 12.4149M52.4683 19.5274C52.0957 20.9104 51.5244 21.9559 50.7518 22.6886C49.9784 23.4212 49.0543 23.7834 47.9761 23.7834C46.8781 23.7834 46.1337 23.4295 45.7404 22.7133C45.3462 21.9971 45.333 20.9598 45.699 19.6015C46.065 18.2432 46.6488 17.1813 47.452 16.4157C48.2552 15.6501 49.1942 15.2673 50.2723 15.2673C51.3488 15.2673 52.0858 15.6378 52.4584 16.3729C52.8393 17.1113 52.8476 18.1675 52.475 19.5423L52.4683 19.5274ZM54.416 12.2996L53.8595 14.3659C53.6194 13.625 53.1532 13.0323 52.4642 12.5878C51.7736 12.1515 50.9191 11.9292 49.8997 11.9292C48.6493 11.9292 47.4487 12.2502 46.2977 12.8923C45.1467 13.5345 44.1364 14.44 43.2752 15.6089C42.4141 16.7779 41.7847 18.1033 41.379 19.5933C40.9815 21.0915 40.8987 22.4004 41.1388 23.5365C41.3873 24.6807 41.9089 25.5534 42.7122 26.1625C43.5237 26.7799 44.5587 27.0845 45.8257 27.0845C46.8324 27.0896 47.8278 26.8731 48.7404 26.4507C49.6428 26.046 50.4454 25.4504 51.0921 24.7054L50.5125 26.859H54.8101L58.7343 12.307H54.4284L54.416 12.2996ZM74.1776 12.2996H61.6797L60.8061 15.5431H68.0781L58.4643 23.7999L57.6429 26.8458H70.5441L71.4177 23.6023H63.6256L73.3868 15.222M85.1783 19.5027C84.7916 20.9351 84.2178 22.0119 83.4601 22.7133C82.7024 23.4212 81.785 23.7752 80.7076 23.7752C78.4553 23.7752 77.715 22.3511 78.4835 19.5027C78.8644 18.0868 79.4407 17.0224 80.2108 16.3054C80.9809 15.5859 81.9141 15.227 83.0113 15.227C84.0878 15.227 84.8148 15.5834 85.1891 16.3013C85.5634 17.0175 85.5601 18.0852 85.1783 19.5011M87.694 12.8471C86.7045 12.2346 85.4417 11.9284 83.9015 11.9284C82.3422 11.9284 80.8989 12.233 79.5707 12.8421C78.248 13.4475 77.0856 14.3512 76.1757 15.4813C75.24 16.6256 74.5668 17.9675 74.1536 19.4986C73.7478 21.024 73.6981 22.3634 74.0128 23.5101C74.3275 24.6544 74.9899 25.5352 75.9836 26.1444C76.9855 26.7585 78.2607 27.0639 79.8258 27.0639C81.366 27.0639 82.7985 26.7561 84.1151 26.1436C85.4317 25.5278 86.5579 24.6536 87.4936 23.5011C88.4293 22.3535 89.1 21.015 89.5141 19.4838C89.9281 17.9526 89.9778 16.6157 89.6631 15.4665C89.3484 14.3223 88.6943 13.4414 87.7089 12.8281M103.036 16.1868L104.138 12.2272C103.765 12.0379 103.276 11.9391 102.664 11.9391C101.678 11.9391 100.734 12.1811 99.8234 12.6717C99.04 13.0883 98.3743 13.676 97.8112 14.412L98.3826 12.2799L97.1347 12.2848H94.0709L90.121 26.831H94.4791L96.5285 19.227C96.8266 18.1214 97.3632 17.2513 98.1375 16.6338C98.9076 16.014 99.8681 15.7036 101.027 15.7036C101.74 15.7036 102.402 15.8658 103.031 16.1893M115.162 19.5727C114.79 20.931 114.227 21.9683 113.457 22.6845C112.686 23.4039 111.759 23.7629 110.683 23.7629C109.606 23.7629 108.869 23.4007 108.48 22.6762C108.082 21.9477 108.074 20.8981 108.447 19.5184C108.819 18.1395 109.391 17.0817 110.177 16.349C110.964 15.6106 111.892 15.2418 112.968 15.2418C114.028 15.2418 114.74 15.6205 115.121 16.3861C115.502 17.1516 115.51 18.2136 115.144 19.5719M118.191 12.8709C117.384 12.2288 116.353 11.9078 115.103 11.9078C114.007 11.9078 112.963 12.1547 111.973 12.6536C110.983 13.1517 110.18 13.8308 109.563 14.6902L109.578 14.5915L110.309 12.2782H106.053L104.968 16.3037L104.935 16.4437L100.463 33.0265H104.827L107.08 24.6791C107.303 25.4216 107.759 26.0045 108.454 26.426C109.15 26.8458 110.009 27.0541 111.03 27.0541C112.296 27.0541 113.505 26.7495 114.652 26.1403C115.803 25.5295 116.797 24.6503 117.642 23.5143C118.486 22.3782 119.113 21.0611 119.513 19.5711C119.919 18.0786 120.002 16.7474 119.77 15.5826C119.534 14.4161 119.011 13.513 118.205 12.8742M132.667 19.5134C132.294 20.8882 131.723 21.9419 130.953 22.6663C130.183 23.3957 129.255 23.7587 128.179 23.7587C127.077 23.7587 126.332 23.4048 125.943 22.6886C125.545 21.9724 125.537 20.9351 125.901 19.5768C126.266 18.2185 126.847 17.1566 127.65 16.391C128.454 15.6254 129.393 15.2434 130.472 15.2434C131.548 15.2434 132.277 15.6139 132.658 16.3465C133.039 17.0817 133.041 18.1379 132.67 19.5159L132.667 19.5134ZM134.613 12.2815L134.055 14.3478C133.815 13.6028 133.352 13.0101 132.664 12.5696C131.969 12.1301 131.116 11.9111 130.097 11.9111C128.847 11.9111 127.64 12.2321 126.487 12.8742C125.336 13.5163 124.326 14.4169 123.464 15.5826C122.603 16.7483 121.974 18.0769 121.568 19.567C121.167 21.0627 121.088 22.3741 121.328 23.5151C121.571 24.6511 122.093 25.5287 122.901 26.1411C123.708 26.7503 124.748 27.0582 126.015 27.0582C127.033 27.0582 128.006 26.8474 128.93 26.4243C129.83 26.0178 130.63 25.4215 131.276 24.6766L130.696 26.8318H134.994L138.917 12.2856H134.619L134.613 12.2815ZM156.959 12.2865L156.962 12.2823H154.32C154.236 12.2823 154.161 12.2865 154.084 12.2881H152.714L152.01 13.2595L151.836 13.49L151.762 13.6052L146.193 21.3171L145.042 12.2865H140.481L142.791 26.0094L137.691 33.0314H142.237L143.47 31.292C143.505 31.2409 143.537 31.1981 143.578 31.1438L145.019 29.1105L145.06 29.0528L151.513 19.9563L156.954 12.3005L156.962 12.2955H156.959V12.2865Z" fill="white"/>
</g>
<defs>
<clipPath id="clip0_2608_2981">
<rect width="157" height="33.0931" fill="white"/>
</clipPath>
</defs>
</svg>
