<svg width="157" height="34" viewBox="0 0 157 34" fill="none" xmlns="http://www.w3.org/2000/svg">
<g clip-path="url(#clip0_2608_4059)">
<path d="M10.1548 8.7425L8.85059 13.5147L16.3155 8.71533L11.4333 26.8244L16.3917 26.8285L23.6041 0.080658" fill="#3395FF"/>
<path d="M2.11999 19.2154L0.0664062 26.8285H10.2292L14.3877 11.3414L2.11999 19.2154ZM37.4218 12.5128C37.1734 13.4307 36.6948 14.1049 35.981 14.5355C35.2689 14.9652 34.2694 15.1809 32.9793 15.1809H28.8804L30.3195 9.84646H34.4184C35.7069 9.84646 36.5921 10.0605 37.0724 10.4968C37.5526 10.9331 37.6686 11.5999 37.4218 12.5219M41.6656 12.4067C42.1873 10.4803 41.972 8.99855 41.0181 7.9613C40.0658 6.93229 38.3948 6.41367 36.01 6.41367H26.8624L21.3558 26.8376H25.8L28.0192 18.6054H30.934C31.5881 18.6054 32.1032 18.7125 32.4791 18.9183C32.8559 19.1323 33.077 19.5027 33.1449 20.0378L33.9382 26.8376H38.6995L37.9278 20.4988C37.7704 19.0829 37.1187 18.2515 35.9735 18.0045C37.4334 17.5847 38.6564 16.8849 39.6418 15.9135C40.6204 14.9493 41.3195 13.7407 41.6656 12.4149M52.4685 19.5274C52.0958 20.9104 51.5245 21.9559 50.7519 22.6886C49.9785 23.4212 49.0544 23.7834 47.9763 23.7834C46.8782 23.7834 46.1338 23.4295 45.7405 22.7133C45.3463 21.9971 45.3331 20.9598 45.6991 19.6015C46.0651 18.2432 46.6489 17.1813 47.4521 16.4157C48.2553 15.6501 49.1943 15.2673 50.2725 15.2673C51.3489 15.2673 52.0859 15.6378 52.4585 16.3729C52.8394 17.1113 52.8477 18.1675 52.4751 19.5423L52.4685 19.5274ZM54.4161 12.2996L53.8596 14.3659C53.6195 13.625 53.1533 13.0323 52.4643 12.5878C51.7737 12.1515 50.9192 11.9292 49.8998 11.9292C48.6495 11.9292 47.4488 12.2502 46.2978 12.8923C45.1468 13.5345 44.1365 14.44 43.2754 15.6089C42.4142 16.7779 41.7849 18.1033 41.3791 19.5933C40.9816 21.0915 40.8988 22.4005 41.139 23.5365C41.3874 24.6807 41.9091 25.5534 42.7123 26.1625C43.5238 26.7799 44.5589 27.0845 45.8258 27.0845C46.8325 27.0896 47.8279 26.8731 48.7406 26.4507C49.6429 26.046 50.4455 25.4504 51.0922 24.7054L50.5126 26.859H54.8102L58.7344 12.307H54.4285L54.4161 12.2996ZM74.1777 12.2996H61.6798L60.8062 15.5431H68.0782L58.4644 23.7999L57.643 26.8458H70.5442L71.4178 23.6023H63.6257L73.3869 15.222M85.1785 19.5027C84.7918 20.9351 84.2179 22.0119 83.4602 22.7133C82.7026 23.4212 81.7851 23.7752 80.7078 23.7752C78.4555 23.7752 77.7152 22.3511 78.4836 19.5027C78.8645 18.0868 79.4408 17.0224 80.2109 16.3054C80.981 15.5859 81.9143 15.227 83.0114 15.227C84.0879 15.227 84.8149 15.5834 85.1892 16.3013C85.5635 17.0175 85.5602 18.0852 85.1785 19.5011M87.6941 12.8471C86.7046 12.2346 85.4418 11.9284 83.9016 11.9284C82.3424 11.9284 80.8991 12.233 79.5708 12.8421C78.2482 13.4475 77.0857 14.3512 76.1758 15.4813C75.2401 16.6256 74.5669 17.9675 74.1537 19.4986C73.7479 21.024 73.6982 22.3634 74.0129 23.5101C74.3276 24.6544 74.99 25.5352 75.9837 26.1444C76.9856 26.7585 78.2609 27.0639 79.8259 27.0639C81.3661 27.0639 82.7986 26.7561 84.1152 26.1436C85.4318 25.5278 86.558 24.6536 87.4937 23.5011C88.4294 22.3535 89.1001 21.015 89.5142 19.4838C89.9282 17.9526 89.9779 16.6157 89.6632 15.4665C89.3486 14.3223 88.6944 13.4414 87.709 12.8281M103.036 16.1868L104.138 12.2272C103.765 12.0379 103.277 11.9391 102.664 11.9391C101.678 11.9391 100.734 12.1811 99.8235 12.6717C99.0402 13.0883 98.3744 13.676 97.8113 14.412L98.3827 12.2799L97.1348 12.2848H94.071L90.1211 26.831H94.4792L96.5287 19.227C96.8268 18.1214 97.3633 17.2513 98.1376 16.6338C98.9077 16.014 99.8682 15.7036 101.028 15.7036C101.74 15.7036 102.402 15.8658 103.031 16.1893M115.162 19.5727C114.79 20.931 114.227 21.9683 113.457 22.6845C112.687 23.4039 111.759 23.7629 110.683 23.7629C109.606 23.7629 108.869 23.4007 108.48 22.6762C108.083 21.9477 108.074 20.8981 108.447 19.5184C108.82 18.1395 109.391 17.0817 110.178 16.349C110.964 15.6106 111.892 15.2418 112.968 15.2418C114.028 15.2418 114.74 15.6205 115.121 16.3861C115.502 17.1516 115.51 18.2136 115.144 19.5719M118.192 12.8709C117.384 12.2288 116.353 11.9078 115.103 11.9078C114.007 11.9078 112.963 12.1547 111.973 12.6536C110.983 13.1517 110.18 13.8308 109.563 14.6902L109.578 14.5915L110.309 12.2782H106.053L104.968 16.3037L104.935 16.4437L100.464 33.0265H104.827L107.08 24.6791C107.303 25.4216 107.759 26.0045 108.454 26.426C109.15 26.8458 110.009 27.0541 111.03 27.0541C112.297 27.0541 113.506 26.7495 114.652 26.1403C115.803 25.5295 116.797 24.6503 117.642 23.5143C118.486 22.3782 119.113 21.0611 119.513 19.5711C119.919 18.0786 120.002 16.7474 119.77 15.5826C119.534 14.4161 119.011 13.513 118.205 12.8742M132.667 19.5134C132.294 20.8882 131.723 21.9419 130.953 22.6663C130.183 23.3957 129.255 23.7587 128.179 23.7587C127.077 23.7587 126.332 23.4048 125.943 22.6886C125.546 21.9724 125.537 20.9351 125.902 19.5768C126.266 18.2185 126.847 17.1566 127.65 16.391C128.454 15.6254 129.393 15.2434 130.472 15.2434C131.548 15.2434 132.277 15.6139 132.658 16.3465C133.039 17.0817 133.041 18.1379 132.67 19.5159L132.667 19.5134ZM134.613 12.2815L134.055 14.3478C133.815 13.6028 133.352 13.0101 132.664 12.5696C131.969 12.1301 131.116 11.9111 130.097 11.9111C128.847 11.9111 127.64 12.2321 126.487 12.8742C125.336 13.5163 124.326 14.4169 123.465 15.5826C122.603 16.7483 121.974 18.0769 121.568 19.567C121.167 21.0627 121.088 22.3741 121.328 23.5151C121.571 24.6511 122.093 25.5287 122.902 26.1411C123.708 26.7503 124.748 27.0582 126.015 27.0582C127.034 27.0582 128.007 26.8474 128.93 26.4243C129.83 26.0178 130.631 25.4215 131.276 24.6766L130.696 26.8318H134.994L138.917 12.2856H134.619L134.613 12.2815ZM156.96 12.2865L156.962 12.2823H154.321C154.236 12.2823 154.162 12.2865 154.085 12.2881H152.714L152.01 13.2595L151.836 13.49L151.762 13.6052L146.193 21.3171L145.042 12.2865H140.481L142.792 26.0094L137.691 33.0314H142.237L143.471 31.292C143.505 31.2409 143.537 31.1981 143.578 31.1438L145.019 29.1105L145.06 29.0528L151.513 19.9563L156.954 12.3005L156.962 12.2955H156.96V12.2865Z" fill="#0E0E0E"/>
</g>
<defs>
<clipPath id="clip0_2608_4059">
<rect width="157" height="33.0931" fill="white"/>
</clipPath>
</defs>
</svg>
