<svg width="20" height="20" viewBox="0 0 20 20" fill="none" xmlns="http://www.w3.org/2000/svg">
<path d="M10.0008 1.66669C14.6033 1.66669 18.3342 5.39752 18.3342 10C18.3342 14.6025 14.6033 18.3334 10.0008 18.3334C8.52812 18.3359 7.08131 17.9461 5.80916 17.2042L1.67083 18.3334L2.79749 14.1934C2.05496 12.9208 1.66491 11.4734 1.66749 10C1.66749 5.39752 5.39833 1.66669 10.0008 1.66669ZM7.16083 6.08335L6.99416 6.09002C6.8864 6.09745 6.78112 6.12575 6.68416 6.17335C6.59381 6.22461 6.51129 6.2886 6.43916 6.36335C6.33916 6.45752 6.28249 6.53919 6.22166 6.61835C5.91343 7.01911 5.74747 7.51111 5.74999 8.01669C5.75166 8.42502 5.85833 8.82252 6.02499 9.19419C6.36583 9.94585 6.92666 10.7417 7.66666 11.4792C7.84499 11.6567 8.01999 11.835 8.20833 12.0009C9.12785 12.8104 10.2236 13.3942 11.4083 13.7059L11.8817 13.7784C12.0358 13.7867 12.19 13.775 12.345 13.7675C12.5876 13.7547 12.8246 13.689 13.0392 13.575C13.1482 13.5186 13.2547 13.4575 13.3583 13.3917C13.3583 13.3917 13.3936 13.3678 13.4625 13.3167C13.575 13.2334 13.6442 13.1742 13.7375 13.0767C13.8075 13.0045 13.8658 12.9206 13.9125 12.825C13.9775 12.6892 14.0425 12.43 14.0692 12.2142C14.0892 12.0492 14.0833 11.9592 14.0808 11.9034C14.0775 11.8142 14.0033 11.7217 13.9225 11.6825L13.4375 11.465C13.4375 11.465 12.7125 11.1492 12.2692 10.9475C12.2228 10.9273 12.1731 10.9157 12.1225 10.9134C12.0655 10.9074 12.0078 10.9138 11.9535 10.932C11.8991 10.9503 11.8493 10.98 11.8075 11.0192C11.8033 11.0175 11.7475 11.065 11.145 11.795C11.1104 11.8415 11.0628 11.8766 11.0082 11.8959C10.9535 11.9152 10.8944 11.9178 10.8383 11.9034C10.784 11.8889 10.7308 11.8705 10.6792 11.8484C10.5758 11.805 10.54 11.7884 10.4692 11.7584C9.99072 11.5499 9.54786 11.2679 9.15666 10.9225C9.05166 10.8309 8.95416 10.7309 8.85416 10.6342C8.52634 10.3202 8.24062 9.96501 8.00416 9.57752L7.95499 9.49835C7.92021 9.44485 7.89169 9.38753 7.86999 9.32752C7.83833 9.20502 7.92083 9.10669 7.92083 9.10669C7.92083 9.10669 8.12333 8.88502 8.21749 8.76502C8.30916 8.64835 8.38666 8.53502 8.43666 8.45419C8.53499 8.29585 8.56583 8.13335 8.51416 8.00752C8.28083 7.43752 8.03972 6.87058 7.79083 6.30669C7.74166 6.19502 7.59583 6.11502 7.46333 6.09919C7.41833 6.09363 7.37333 6.08919 7.32833 6.08585C7.21643 6.07944 7.10424 6.08055 6.99249 6.08919L7.16083 6.08335Z" fill="#10F600"/>
</svg>
